<svg width="842" height="538" viewBox="0 0 842 538" fill="none" xmlns="http://www.w3.org/2000/svg">
<g opacity="0.8">
<mask id="mask0_482_22977" style="mask-type:alpha" maskUnits="userSpaceOnUse" x="0" y="0" width="1096" height="822">
<rect width="746" height="757" fill="url(#paint0_radial_482_22977)" fill-opacity="0.43"/>
<path d="M129 0.5H64C28.9299 0.5 0.5 28.9299 0.5 64V129C0.5 133.142 3.85787 136.5 8 136.5H129C133.142 136.5 136.5 133.142 136.5 129V8L136.49 7.61426C136.289 3.65139 133.013 0.5 129 0.5Z" stroke="#DEDEDE"/>
<path d="M145 0.5H210C245.07 0.5 273.5 28.9299 273.5 64V129C273.5 133.142 270.142 136.5 266 136.5H145C140.858 136.5 137.5 133.142 137.5 129V8L137.51 7.61426C137.711 3.65139 140.987 0.5 145 0.5Z" stroke="#DEDEDE"/>
<path d="M145 273.5H210C245.07 273.5 273.5 245.07 273.5 210V145C273.5 140.858 270.142 137.5 266 137.5H145C140.858 137.5 137.5 140.858 137.5 145V266L137.51 266.386C137.711 270.349 140.987 273.5 145 273.5Z" stroke="#DEDEDE"/>
<path d="M129 273.5H64C28.9299 273.5 0.5 245.07 0.5 210V145C0.5 140.858 3.85787 137.5 8 137.5H129C133.142 137.5 136.5 140.858 136.5 145V266L136.49 266.386C136.289 270.349 133.013 273.5 129 273.5Z" stroke="#DEDEDE"/>
<path d="M129 274.5H64C28.9299 274.5 0.5 302.93 0.5 338V403C0.5 407.142 3.85787 410.5 8 410.5H129C133.142 410.5 136.5 407.142 136.5 403V282L136.49 281.614C136.289 277.651 133.013 274.5 129 274.5Z" stroke="#DEDEDE"/>
<path d="M145 274.5H210C245.07 274.5 273.5 302.93 273.5 338V403C273.5 407.142 270.142 410.5 266 410.5H145C140.858 410.5 137.5 407.142 137.5 403V282L137.51 281.614C137.711 277.651 140.987 274.5 145 274.5Z" stroke="#DEDEDE"/>
<path d="M145 547.5H210C245.07 547.5 273.5 519.07 273.5 484V419C273.5 414.858 270.142 411.5 266 411.5H145C140.858 411.5 137.5 414.858 137.5 419V540L137.51 540.386C137.711 544.349 140.987 547.5 145 547.5Z" stroke="#DEDEDE"/>
<path d="M129 547.5H64C28.9299 547.5 0.5 519.07 0.5 484V419C0.5 414.858 3.85787 411.5 8 411.5H129C133.142 411.5 136.5 414.858 136.5 419V540L136.49 540.386C136.289 544.349 133.013 547.5 129 547.5Z" stroke="#DEDEDE"/>
<path d="M403 0.5H338C302.93 0.5 274.5 28.9299 274.5 64V129C274.5 133.142 277.858 136.5 282 136.5H403C407.142 136.5 410.5 133.142 410.5 129V8L410.49 7.61426C410.289 3.65139 407.013 0.5 403 0.5Z" stroke="#DEDEDE"/>
<path d="M419 0.5H484C519.07 0.5 547.5 28.9299 547.5 64V129C547.5 133.142 544.142 136.5 540 136.5H419C414.858 136.5 411.5 133.142 411.5 129V8L411.51 7.61426C411.711 3.65139 414.987 0.5 419 0.5Z" stroke="#DEDEDE"/>
<path d="M419 273.5H484C519.07 273.5 547.5 245.07 547.5 210V145C547.5 140.858 544.142 137.5 540 137.5H419C414.858 137.5 411.5 140.858 411.5 145V266L411.51 266.386C411.711 270.349 414.987 273.5 419 273.5Z" stroke="#DEDEDE"/>
<path d="M403 273.5H338C302.93 273.5 274.5 245.07 274.5 210V145C274.5 140.858 277.858 137.5 282 137.5H403C407.142 137.5 410.5 140.858 410.5 145V266L410.49 266.386C410.289 270.349 407.013 273.5 403 273.5Z" stroke="#DEDEDE"/>
<path d="M403 274.5H338C302.93 274.5 274.5 302.93 274.5 338V403C274.5 407.142 277.858 410.5 282 410.5H403C407.142 410.5 410.5 407.142 410.5 403V282L410.49 281.614C410.289 277.651 407.013 274.5 403 274.5Z" stroke="#DEDEDE"/>
<path d="M419 274.5H484C519.07 274.5 547.5 302.93 547.5 338V403C547.5 407.142 544.142 410.5 540 410.5H419C414.858 410.5 411.5 407.142 411.5 403V282L411.51 281.614C411.711 277.651 414.987 274.5 419 274.5Z" stroke="#DEDEDE"/>
<path d="M419 547.5H484C519.07 547.5 547.5 519.07 547.5 484V419C547.5 414.858 544.142 411.5 540 411.5H419C414.858 411.5 411.5 414.858 411.5 419V540L411.51 540.386C411.711 544.349 414.987 547.5 419 547.5Z" stroke="#DEDEDE"/>
<path d="M403 547.5H338C302.93 547.5 274.5 519.07 274.5 484V419C274.5 414.858 277.858 411.5 282 411.5H403C407.142 411.5 410.5 414.858 410.5 419V540L410.49 540.386C410.289 544.349 407.013 547.5 403 547.5Z" stroke="#DEDEDE"/>
<path d="M677 0.5H612C576.93 0.5 548.5 28.9299 548.5 64V129C548.5 133.142 551.858 136.5 556 136.5H677C681.142 136.5 684.5 133.142 684.5 129V8L684.49 7.61426C684.289 3.65139 681.013 0.5 677 0.5Z" stroke="#DEDEDE"/>
<path d="M693 0.5H758C793.07 0.5 821.5 28.9299 821.5 64V129C821.5 133.142 818.142 136.5 814 136.5H693C688.858 136.5 685.5 133.142 685.5 129V8L685.51 7.61426C685.711 3.65139 688.987 0.5 693 0.5Z" stroke="#DEDEDE"/>
<path d="M693 273.5H758C793.07 273.5 821.5 245.07 821.5 210V145C821.5 140.858 818.142 137.5 814 137.5H693C688.858 137.5 685.5 140.858 685.5 145V266L685.51 266.386C685.711 270.349 688.987 273.5 693 273.5Z" stroke="#DEDEDE"/>
<path d="M677 273.5H612C576.93 273.5 548.5 245.07 548.5 210V145C548.5 140.858 551.858 137.5 556 137.5H677C681.142 137.5 684.5 140.858 684.5 145V266L684.49 266.386C684.289 270.349 681.013 273.5 677 273.5Z" stroke="#DEDEDE"/>
<path d="M677 274.5H612C576.93 274.5 548.5 302.93 548.5 338V403C548.5 407.142 551.858 410.5 556 410.5H677C681.142 410.5 684.5 407.142 684.5 403V282L684.49 281.614C684.289 277.651 681.013 274.5 677 274.5Z" stroke="#DEDEDE"/>
<path d="M693 274.5H758C793.07 274.5 821.5 302.93 821.5 338V403C821.5 407.142 818.142 410.5 814 410.5H693C688.858 410.5 685.5 407.142 685.5 403V282L685.51 281.614C685.711 277.651 688.987 274.5 693 274.5Z" stroke="#DEDEDE"/>
<path d="M693 547.5H758C793.07 547.5 821.5 519.07 821.5 484V419C821.5 414.858 818.142 411.5 814 411.5H693C688.858 411.5 685.5 414.858 685.5 419V540L685.51 540.386C685.711 544.349 688.987 547.5 693 547.5Z" stroke="#DEDEDE"/>
<path d="M677 547.5H612C576.93 547.5 548.5 519.07 548.5 484V419C548.5 414.858 551.858 411.5 556 411.5H677C681.142 411.5 684.5 414.858 684.5 419V540L684.49 540.386C684.289 544.349 681.013 547.5 677 547.5Z" stroke="#DEDEDE"/>
<path d="M951 0.5H886C850.93 0.5 822.5 28.9299 822.5 64V129C822.5 133.142 825.858 136.5 830 136.5H951C955.142 136.5 958.5 133.142 958.5 129V8L958.49 7.61426C958.289 3.65139 955.013 0.5 951 0.5Z" stroke="#DEDEDE"/>
<path d="M951 273.5H886C850.93 273.5 822.5 245.07 822.5 210V145C822.5 140.858 825.858 137.5 830 137.5H951C955.142 137.5 958.5 140.858 958.5 145V266L958.49 266.386C958.289 270.349 955.013 273.5 951 273.5Z" stroke="#DEDEDE"/>
<path d="M951 274.5H886C850.93 274.5 822.5 302.93 822.5 338V403C822.5 407.142 825.858 410.5 830 410.5H951C955.142 410.5 958.5 407.142 958.5 403V282L958.49 281.614C958.289 277.651 955.013 274.5 951 274.5Z" stroke="#DEDEDE"/>
<path d="M951 547.5H886C850.93 547.5 822.5 519.07 822.5 484V419C822.5 414.858 825.858 411.5 830 411.5H951C955.142 411.5 958.5 414.858 958.5 419V540L958.49 540.386C958.289 544.349 955.013 547.5 951 547.5Z" stroke="#DEDEDE"/>
</mask>
<g mask="url(#mask0_482_22977)">
<rect x="-141" y="-404" width="982.188" height="1141.03" fill="url(#paint1_radial_482_22977)" fill-opacity="0.23"/>
</g>
</g>
<defs>
<radialGradient id="paint0_radial_482_22977" cx="0" cy="0" r="1" gradientUnits="userSpaceOnUse" gradientTransform="translate(373 378.5) rotate(90) scale(378.5 373)">
<stop stop-color="#D9D9D9"/>
<stop offset="0.989583" stop-color="#D9D9D9" stop-opacity="0"/>
</radialGradient>
<radialGradient id="paint1_radial_482_22977" cx="0" cy="0" r="1" gradientUnits="userSpaceOnUse" gradientTransform="translate(349.754 267.052) rotate(90) scale(444 382.193)">
<stop stop-color="#D9D9D9"/>
<stop offset="0.989583" stop-color="#D9D9D9" stop-opacity="0"/>
</radialGradient>
</defs>
</svg>
